<svg width="200" height="200" viewBox="0 0 200 200" fill="none" xmlns="http://www.w3.org/2000/svg">
<path d="M100 28L120 78H173L131 107L147 157L100 127L53 157L69 107L27 78H80L100 28Z" fill="#4169E6"/>
<path d="M158 188C174.569 188 188 174.569 188 158C188 141.431 174.569 128 158 128C141.431 128 128 141.431 128 158C128 174.569 141.431 188 158 188Z" fill="#4CAF7D"/>
<path d="M167 153H149C147.343 153 146 154.343 146 156V160C146 161.657 147.343 163 149 163H167C168.657 163 170 161.657 170 160V156C170 154.343 168.657 153 167 153Z" fill="white"/>
<path d="M160 146H156C154.343 146 153 147.343 153 149V167C153 168.657 154.343 170 156 170H160C161.657 170 163 168.657 163 167V149C163 147.343 161.657 146 160 146Z" fill="white"/>
</svg>
